<svg xmlns="http://www.w3.org/2000/svg" enable-background="new 0 0 24 24" viewBox="0 0 24 24" id="json"><linearGradient id="a" x1="37.985" x2="37.992" y1="99.982" y2="99.976" gradientTransform="matrix(2341.4561 0 0 -2498.4375 -88937.328 249803.578)" gradientUnits="userSpaceOnUse"><stop offset="0"></stop><stop offset="1" stop-color="#fff"></stop></linearGradient><path fill="url(#a)" d="M11.98,17.865c5.31,7.238,10.506-2.02,10.498-7.588C22.469,3.694,15.797,0.015,11.975,0.015C5.841,0.015,0,5.084,0,12.02C0,19.73,6.696,24,11.975,24c-1.195-0.172-5.176-1.025-5.229-10.195c-0.036-6.202,2.023-8.68,5.221-7.59c0.072,0.027,3.527,1.39,3.527,5.843C15.494,16.492,11.98,17.865,11.98,17.865L11.98,17.865z"></path><linearGradient id="b" x1="37.782" x2="37.773" y1="99.975" y2="99.982" gradientTransform="matrix(2065.9375 0 0 -2499.9961 -78033.563 249957.89)" gradientUnits="userSpaceOnUse"><stop offset="0"></stop><stop offset="1" stop-color="#fff"></stop></linearGradient><path fill="url(#b)" d="M11.973,6.21c-3.509-1.209-7.806,1.682-7.806,7.474C4.167,23.142,11.175,24,12.025,24C18.159,24,24,18.931,24,11.995c0-7.709-6.696-11.98-11.975-11.98c1.462-0.203,7.881,1.582,7.881,10.355c0,5.721-4.793,8.836-7.91,7.505c-0.072-0.027-3.527-1.39-3.527-5.843C8.468,7.599,11.973,6.21,11.973,6.21L11.973,6.21z"></path><path d="M13.49,19.027c-0.39,0-0.774-0.044-1.148-0.135c-0.34-0.082-0.63-0.186-0.884-0.318c-0.276-0.121-0.574-0.293-0.844-0.493c-0.457-0.307-0.91-0.714-1.317-1.191c-0.482-0.583-0.861-1.223-1.135-1.913c-0.337-0.881-0.511-1.801-0.522-2.743c-0.034-1.433,0.278-2.801,0.903-3.948c0.444-0.802,1.062-1.526,1.79-2.099c0.242-0.187,0.501-0.36,0.75-0.511l0.409,0.631l0.335,0.671c-0.167,0.103-0.378,0.243-0.571,0.392c-0.566,0.447-1.052,1.015-1.397,1.639c-0.497,0.913-0.746,2.021-0.718,3.2c0.009,0.773,0.15,1.519,0.42,2.225c0.212,0.535,0.511,1.041,0.885,1.493c0.311,0.364,0.662,0.68,1.035,0.931c0.206,0.152,0.414,0.272,0.628,0.367c0.187,0.095,0.364,0.158,0.585,0.21c1.147,0.278,2.468-0.069,3.626-0.953c0.654-0.488,1.201-1.097,1.631-1.814c0.57-0.933,0.943-2.04,1.083-3.206c0.075-0.615,0.086-1.279,0.035-2.032c-0.062-1.052-0.206-1.962-0.442-2.789c-0.408-1.438-1.068-2.659-1.963-3.631c-0.305-0.333-0.613-0.618-0.918-0.849c-0.33-0.25-0.396-0.721-0.146-1.051s0.722-0.395,1.051-0.146c0.377,0.286,0.753,0.632,1.118,1.031c1.054,1.145,1.829,2.57,2.301,4.234c0.266,0.932,0.429,1.949,0.497,3.105c0.057,0.841,0.043,1.598-0.043,2.306c-0.164,1.377-0.61,2.693-1.289,3.803c-0.527,0.879-1.205,1.633-2.01,2.235C16.066,18.56,14.753,19.027,13.49,19.027z"></path><path d="M7.92,23.237c-0.153,0-0.307-0.046-0.44-0.143c-0.429-0.312-0.813-0.643-1.173-1.014c-1.079-1.149-1.884-2.635-2.338-4.308c-0.273-1.004-0.438-2.065-0.505-3.245c-0.04-0.704-0.023-1.405,0.052-2.143c0.146-1.403,0.552-2.71,1.173-3.783c0.468-0.839,1.125-1.61,1.896-2.218c0.544-0.419,1.154-0.758,1.771-0.985c0.89-0.334,1.865-0.441,2.821-0.303c0.325,0.041,0.683,0.124,1.05,0.247l-0.001,0.002c0.064,0.022,0.126,0.052,0.184,0.089c0.014,0.006,0.028,0.014,0.042,0.022l0.128,0.064c0.242,0.121,0.475,0.269,0.697,0.411c1.054,0.75,1.835,1.697,2.339,2.793c0.425,0.943,0.654,2.035,0.666,3.163c0.023,1.225-0.208,2.367-0.688,3.388c-0.587,1.284-1.594,2.384-2.831,3.091c-0.357,0.205-0.817,0.082-1.023-0.279c-0.205-0.36-0.081-0.818,0.279-1.023c0.966-0.552,1.753-1.411,2.214-2.419c0.378-0.807,0.567-1.75,0.549-2.736c-0.009-0.929-0.193-1.812-0.531-2.563c-0.393-0.854-1.005-1.598-1.768-2.144c-0.193-0.123-0.38-0.243-0.574-0.341l-0.092-0.046c-0.01-0.004-0.021-0.01-0.032-0.016c-0.036-0.014-0.083-0.035-0.135-0.067c-0.236-0.073-0.462-0.123-0.672-0.149c-0.72-0.102-1.44-0.024-2.1,0.222C8.399,6.98,7.926,7.243,7.507,7.566c-0.61,0.481-1.136,1.097-1.514,1.776c-0.522,0.902-0.861,2.003-0.985,3.195c-0.066,0.656-0.082,1.28-0.046,1.905c0.061,1.074,0.209,2.035,0.454,2.937c0.39,1.436,1.073,2.704,1.976,3.665c0.291,0.299,0.61,0.575,0.969,0.835c0.335,0.243,0.41,0.712,0.167,1.047C8.381,23.129,8.152,23.237,7.92,23.237z M12.029,6.082h0.01H12.029z"></path><g><path d="M12,24C5.383,24,0,18.617,0,12S5.383,0,12,0s12,5.383,12,12S18.617,24,12,24z M12,1.5C6.21,1.5,1.5,6.21,1.5,12S6.21,22.5,12,22.5S22.5,17.79,22.5,12S17.79,1.5,12,1.5z"></path></g></svg>